<svg xmlns="http://www.w3.org/2000/svg" viewBox="0 0 1600 800"><path d="M1159.669,4C1159.669,4,1205.711,35.265,1230.151,44.001C1253.414,52.317,1278.773,57.152,1302.513,56.451C1325.787,55.765,1352.991,50.519,1371.239,40.404C1386.843,31.754,1407.826,4,1407.826,4" stroke="#2d3135" stroke-width="1" fill="none" stroke-linecap="round" stroke-miterlimit="4"></path><path d="M1587.511,796C1587.511,796,1562.267,789.595,1550.947,783.838C1539.63,778.083,1527.899,770.081,1519.598,761.465C1512.118,753.702,1506.053,744.966,1502.39,735.354C1498.647,725.529,1496.642,713.682,1497.657,703.03C1498.697,692.127,1503.54,679.899,1508.928,670.707C1513.82,662.362,1518.482,656.429,1527.638,649.586C1542.614,638.394,1596,617.592,1596,617.592" stroke="#2d3135" stroke-width="1" fill="none" stroke-linecap="round" stroke-miterlimit="4"></path><path d="M4,165.854C4,165.854,75.209,169.131,96.482,167.063C107.874,165.956,115.416,165.562,122.437,161.616C128.857,158.009,138.47,150.826,137.61,145.455C136.31,137.337,111.024,126.809,93.165,121.212C69.939,113.933,8.04,111.98,8.04,111.98" stroke="#2d3135" stroke-width="1" fill="none" stroke-linecap="round" stroke-miterlimit="4"></path><path d="M79.088,796C79.088,796,54.378,769.829,50.081,759.596C47.539,753.544,47.105,748.668,48.095,743.434C49.146,737.874,51.462,732.377,56.841,727.273C66.271,718.324,88.142,708.694,107.846,703.03C132.119,696.054,166.572,693.168,192.965,693.104C215.901,693.048,237.73,695.134,257.286,700.287C274.894,704.926,293.214,711.326,305.528,720.912C316.075,729.124,325.924,739.659,328.878,751.515C332.06,764.287,321.608,795.592,321.608,795.592" stroke="#2d3135" stroke-width="1" fill="none" stroke-linecap="round" stroke-miterlimit="4"></path><path d="M1059.262,4C1059.262,4,1093.716,41.103,1113.005,56.566C1131.965,71.764,1153.381,86.004,1173.869,96.192C1192.464,105.438,1210.485,111.842,1230.151,116.466C1250.612,121.277,1271.83,123.848,1294.472,123.971C1319.772,124.108,1349.241,121.503,1374.874,115.473C1399.745,109.622,1425.832,100.954,1446.19,88.889C1464.527,78.021,1482.283,63.792,1492.891,48.485C1502.187,35.069,1509.352,4,1509.352,4" stroke="#2d3135" stroke-width="1" fill="none" stroke-linecap="round" stroke-miterlimit="4"></path><path d="M1451.938,796C1451.938,796,1432.92,772.602,1427.051,759.596C1421.346,746.952,1417.952,732.755,1416.817,719.192C1415.697,705.816,1416.74,691.977,1420.097,678.788C1423.602,665.016,1428.298,651.472,1438.017,638.384C1450.746,621.242,1471.939,601.102,1495.477,588.915C1522.993,574.668,1596,563.811,1596,563.811" stroke="#2d3135" stroke-width="1" fill="none" stroke-linecap="round" stroke-miterlimit="4"></path><path d="M4,210.769C4,210.769,102.213,220.478,144.724,221.052C179.895,221.527,211.373,221.736,241.206,216.617C268.06,212.008,298.667,205.677,316.108,193.939C328.819,185.385,340.405,172.118,342.249,161.616C343.697,153.367,338.303,144.194,333.879,137.374C329.629,130.824,325.034,126.754,316.608,121.212C301.03,110.966,269.937,97.212,242.502,88.889C210.864,79.291,173.818,74.202,136.683,69.876C96.033,65.141,8.04,62.904,8.04,62.904" stroke="#2d3135" stroke-width="1" fill="none" stroke-linecap="round" stroke-miterlimit="4"></path><path d="M433.78,796C433.78,796,446.142,765.15,446.051,751.515C445.973,739.87,442.779,729.278,436.666,719.192C429.368,707.15,416.342,695.633,402.01,686.01C384.649,674.354,359.513,664.416,337.688,657.372C316.606,650.567,296.125,646.79,273.367,643.962C248.18,640.833,225.181,639.043,192.965,640.611C143.89,643,8.04,666.47,8.04,666.47" stroke="#2d3135" stroke-width="1" fill="none" stroke-linecap="round" stroke-miterlimit="4"></path><path d="M977.497,4C977.497,4,1081.912,153.705,1109.548,182.557C1119.876,193.339,1124.455,197.706,1133.668,202.054C1143.147,206.527,1150.755,208.303,1165.829,208.643C1201.038,209.436,1287.936,193.12,1342.714,180.639C1391.608,169.498,1440.566,157.147,1479.397,139.697C1511.352,125.336,1543.212,105.651,1561.589,88.889C1573.482,78.042,1580.134,67.792,1585.935,56.566C1591.187,46.402,1596,24.962,1596,24.962" stroke="#2d3135" stroke-width="1" fill="none" stroke-linecap="round" stroke-miterlimit="4"></path><path d="M1370.902,796C1370.902,796,1355.267,761.567,1351.755,743.434C1348.221,725.197,1348.063,704.883,1349.864,686.869C1351.554,669.966,1355.169,654.116,1361.356,638.384C1367.9,621.741,1377.936,603.465,1388.9,589.899C1398.84,577.6,1410.584,567.605,1423.116,559.404C1435.429,551.345,1445.523,546.037,1463.317,540.915C1494.259,532.007,1596,523.632,1596,523.632" stroke="#2d3135" stroke-width="1" fill="none" stroke-linecap="round" stroke-miterlimit="4"></path><path d="M4,239.092C4,239.092,142.239,257.132,201.005,259.593C248.37,261.576,291.923,260.8,329.648,257.021C359.702,254.01,384.016,249.026,409.992,242.424C435.303,235.992,464.993,226.354,483.631,218.182C495.827,212.834,505.681,209.273,512.628,202.02C518.907,195.464,525.233,186.309,524.8,177.778C524.286,167.639,513.347,155.508,504.228,145.455C493.56,133.693,481.064,124.084,462.94,113.131C434.562,95.983,386.525,72.936,345.729,60.376C304.602,47.714,265.343,42.858,217.085,37.71C156.015,31.196,8.04,29.732,8.04,29.732" stroke="#2d3135" stroke-width="1" fill="none" stroke-linecap="round" stroke-miterlimit="4"></path><path d="M4,622.654C4,622.654,176.314,599.754,233.166,599.14C266.807,598.777,286.926,601.434,313.568,605.64C340.531,609.897,366.907,615.752,393.97,624.677C423.201,634.317,457.662,648.006,482.58,662.626C503.229,674.741,523.34,687.861,535.013,703.03C544.512,715.372,551.453,728.975,551.98,743.434C552.573,759.701,534.285,796,534.285,796" stroke="#2d3135" stroke-width="1" fill="none" stroke-linecap="round" stroke-miterlimit="4"></path><path d="M1596,146.271C1596,146.271,1445.191,205.143,1398.995,226.844C1372.992,239.058,1356.331,246.566,1339.496,258.586C1324.921,268.992,1315.029,277.642,1302.513,293.039C1284.158,315.618,1264.074,365.265,1246.231,386.016C1235.157,398.895,1227.628,406.26,1214.07,412.818C1197.084,421.034,1173.007,424.825,1149.749,426.278C1122.722,427.967,1089.071,424.136,1061.307,419.056C1035.73,414.376,1012.624,407.263,988.945,398.21C964.613,388.907,944.198,378.512,917.348,363.636C880.266,343.092,819.252,306.57,789.023,282.828C770.317,268.137,753.004,253.735,747.317,242.424C744.304,236.432,743.777,231.366,745.197,226.263C746.796,220.515,750.528,215.98,758.087,210.101C777.03,195.368,848.352,174.818,876.382,156.629C894.343,144.973,908.772,134.924,916.219,121.212C922.74,109.206,923.704,96.234,922.366,80.808C920.483,59.088,896.574,4,896.574,4" stroke="#2d3135" stroke-width="1" fill="none" stroke-linecap="round" stroke-miterlimit="4"></path><path d="M1295.085,796C1295.085,796,1284.598,757.13,1282.824,735.354C1280.796,710.458,1282.022,681.929,1285.807,654.545C1289.833,625.422,1297.467,589.78,1307.355,565.657C1314.89,547.272,1323.557,531.094,1334.673,520.098C1343.983,510.889,1354.6,506.027,1366.834,501.287C1380.911,495.833,1393.71,493.439,1415.075,491.001C1455.997,486.331,1596,487.891,1596,487.891" stroke="#2d3135" stroke-width="1" fill="none" stroke-linecap="round" stroke-miterlimit="4"></path><path d="M4,263.896C4,263.896,184.4,295.974,273.367,301.347C359.907,306.574,465.596,293.506,530.653,296.843C570.633,298.894,593.1,300.692,627.136,308.477C667.394,317.686,708.956,332.461,755.779,352.501C816.213,378.367,890.414,428.851,956.784,456.914C1017.729,482.684,1099.028,497.682,1138.021,517.172C1158.639,527.477,1170.958,534.952,1181.91,547.587C1192.218,559.479,1197.983,569.706,1203.06,589.899C1213.659,632.058,1209.052,796,1209.052,796" stroke="#2d3135" stroke-width="1" fill="none" stroke-linecap="round" stroke-miterlimit="4"></path><path d="M1596,451.497C1596,451.497,1517.526,443.459,1487.437,437.027C1465.407,432.318,1446.935,428.113,1431.156,420.313C1417.911,413.765,1405.282,406.012,1397.722,395.96C1390.829,386.794,1386.43,375.087,1385.983,363.636C1385.49,350.993,1390.118,335.901,1397.181,323.232C1405.276,308.714,1419.855,294.61,1434.588,282.828C1450.53,270.08,1468.404,261.344,1490.364,250.505C1519.604,236.072,1596,206.862,1596,206.862" stroke="#2d3135" stroke-width="1" fill="none" stroke-linecap="round" stroke-miterlimit="4"></path><path d="M803.611,4C803.611,4,801.347,32.831,795.98,44.557C790.966,55.512,783.329,65.18,773.546,72.727C762.514,81.238,746.432,87.17,731.658,91.229C716.439,95.41,701.531,97.185,683.417,97.061C660.012,96.9,635.452,93.566,603.015,86.22C550.684,74.369,459.66,35.247,402.01,21.524C359.879,11.494,290.601,4,290.601,4" stroke="#2d3135" stroke-width="1" fill="none" stroke-linecap="round" stroke-miterlimit="4"></path><path d="M657.253,796C657.253,796,675.176,760.332,673.796,743.434C672.427,726.658,662.333,709.588,649.301,694.949C632.718,676.322,604.938,661.589,575.914,646.465C538.804,627.127,483.538,607.024,442.211,593.54C407.804,582.313,377.404,574.2,345.729,568.505C315.815,563.126,286.796,560.227,257.286,559.458C227.835,558.69,202.619,560.699,168.844,563.866C123.115,568.153,8.04,586.062,8.04,586.062" stroke="#2d3135" stroke-width="1" fill="none" stroke-linecap="round" stroke-miterlimit="4"></path><path d="M4,288.207C4,288.207,217.68,341.407,321.608,355.061C419.824,367.965,536.01,357.133,611.055,370.649C660.6,379.573,690.265,389.604,731.658,408.301C780.893,430.539,833.26,474.354,884.422,501.105C932.698,526.347,995.857,546.203,1029.894,565.657C1050.004,577.151,1063.97,585.943,1075.087,597.98C1084.247,607.897,1090.241,617.927,1094.528,630.303C1099.408,644.39,1101.178,661.511,1100.645,678.788C1100.027,698.835,1095.086,723.419,1088.402,743.434C1082.094,762.322,1062.526,796,1062.526,796" stroke="#2d3135" stroke-width="1" fill="none" stroke-linecap="round" stroke-miterlimit="4"></path><path d="M860.18,796C860.18,796,837.12,735.018,818.713,711.111C801.101,688.237,778.115,670.385,753.286,654.545C726.793,637.645,701.302,628.669,663.492,614.141C602.317,590.637,479.758,551.975,418.09,535.306C381.535,525.424,357.806,519.446,329.648,515.792C304.469,512.523,288.521,511.031,257.286,512.823C198.988,516.167,8.04,551.919,8.04,551.919" stroke="#2d3135" stroke-width="1" fill="none" stroke-linecap="round" stroke-miterlimit="4"></path><path d="M1596,406.217C1596,406.217,1541.455,392.228,1526.113,379.798C1515.113,370.886,1505.697,358.952,1505.378,347.475C1505.027,334.856,1516.371,319.089,1528.231,307.071C1543.65,291.447,1596,267.55,1596,267.55" stroke="#2d3135" stroke-width="1" fill="none" stroke-linecap="round" stroke-miterlimit="4"></path><path d="M4,314.452C4,314.452,119.074,346.424,154.777,363.636C176.497,374.108,193.403,384.569,203.776,395.96C210.871,403.752,216.704,412.124,216.694,420.202C216.684,428.285,210.642,437.2,203.699,444.444C194.567,453.973,181.524,460.439,162.746,468.687C127.694,484.082,4,516.614,4,516.614" stroke="#2d3135" stroke-width="1" fill="none" stroke-linecap="round" stroke-miterlimit="4"></path><path d="M570.854,458.255C582.696,456.345,598.03,457.416,611.055,460.416C624.373,463.483,641.341,469.873,649.834,476.768C655.638,481.48,661.696,487.913,661.033,492.929C660.311,498.394,651,505.298,643.216,508.001C632.996,511.549,616.279,509.047,603.015,506.64C589.316,504.154,572.841,498.948,562.354,492.929C554.414,488.372,545.899,481.716,543.806,476.768C542.606,473.93,542.508,471.088,544.242,468.687C547.501,464.175,560.877,459.865,570.854,458.255" stroke="#2d3135" stroke-width="1" fill="none" stroke-linecap="round" stroke-miterlimit="4"></path><path d="M4,347.756C4,347.756,53.206,366.678,66.75,379.798C76.553,389.294,85.092,401.504,84.573,412.121C84.038,423.063,73.165,435.183,62.385,444.444C48.521,456.355,4,472.669,4,472.669" stroke="#2d3135" stroke-width="1" fill="none" stroke-linecap="round" stroke-miterlimit="4"></path></svg>