<svg xmlns="http://www.w3.org/2000/svg" viewBox="0 0 1600 800"><path d="M4,180.359C4,180.359,74.475,179.882,96.482,174.584C109.521,171.445,120.278,167.668,126.311,161.616C130.748,157.165,134.922,150.693,133.277,145.455C130.616,136.985,110.532,126.919,94.18,121.212C71.726,113.376,8.04,111.131,8.04,111.131" stroke="#2d3135" stroke-width="1" fill="none" stroke-linecap="round" stroke-miterlimit="4"></path><path d="M4,760.113C4,760.113,78.913,767.68,112.563,774.217C142.475,780.028,196.281,796,196.281,796" stroke="#2d3135" stroke-width="1" fill="none" stroke-linecap="round" stroke-miterlimit="4"></path><path d="M677.042,796C677.042,796,676.456,767.185,672.056,751.515C666.621,732.157,654.138,707.873,643.216,689.588C633.526,673.365,623.427,658.661,611.055,646.485C599.177,634.793,586.656,624.671,570.854,617.47C552.614,609.158,535.351,606.826,506.533,602.41C449.582,593.682,333.231,595.249,249.246,583.3C167.146,571.619,8.04,532.265,8.04,532.265" stroke="#2d3135" stroke-width="1" fill="none" stroke-linecap="round" stroke-miterlimit="4"></path><path d="M624.228,4C624.228,4,635.865,24.214,645.833,32.323C658.343,42.501,677.709,50.056,696.436,56.566C717.841,64.006,742.98,68.946,767.939,72.727C794.749,76.789,825.596,79.588,852.261,79.353C876.36,79.14,902.148,77.75,921.024,72.727C935.257,68.94,949.5,64.489,956.825,56.566C962.757,50.148,966.457,40.493,965.551,32.323C964.517,22.998,947.54,4,947.54,4" stroke="#2d3135" stroke-width="1" fill="none" stroke-linecap="round" stroke-miterlimit="4"></path><path d="M1596,743.74L1487.437,795.998" stroke="#2d3135" stroke-width="1" fill="none" stroke-linecap="round" stroke-miterlimit="4"></path><path d="M4,270.396C4,270.396,112.98,277.918,160.804,274.978C201.551,272.474,240.695,268.218,273.367,257.736C300.942,248.889,321.529,237.736,345.729,221.076C375.092,200.861,406.395,157.261,434.171,140.82C453.781,129.212,469.703,125.021,490.452,121.416C514.567,117.226,534.591,119.292,570.854,120.447C647.027,122.873,839.529,145.348,924.623,147.286C972.565,148.378,1002.013,147.05,1037.186,143.889C1068.531,141.072,1101.003,136.937,1125.628,130.605C1144.108,125.852,1161.682,121.573,1172.864,113.131C1181.501,106.612,1189.858,98.261,1190.608,88.889C1191.529,77.371,1180.072,61.336,1169.971,48.485C1157.588,32.73,1118.294,4,1118.294,4" stroke="#2d3135" stroke-width="1" fill="none" stroke-linecap="round" stroke-miterlimit="4"></path><path d="M421.445,4C421.445,4,399.805,22.418,385.93,28.394C369.891,35.301,356.309,38.095,329.648,40.474C266.612,46.101,8.04,29.732,8.04,29.732" stroke="#2d3135" stroke-width="1" fill="none" stroke-linecap="round" stroke-miterlimit="4"></path><path d="M836.089,796C836.089,796,810.888,748.526,802.899,727.273C796.414,710.02,791.893,699.517,789.522,678.788C785.487,643.522,804.064,563.595,795.543,533.333C791.137,517.689,783.647,510.068,773.884,501.01C762.981,490.893,749.946,484.623,731.658,477.081C702.307,464.978,651.536,452.28,611.055,444.134C571.126,436.1,525.605,429.813,490.452,428.31C463.325,427.151,447.888,428.382,418.09,431.571C369.109,436.814,291.55,460.865,225.126,464.343C155.1,468.009,8.04,450.517,8.04,450.517" stroke="#2d3135" stroke-width="1" fill="none" stroke-linecap="round" stroke-miterlimit="4"></path><path d="M1596,656.568C1596,656.568,1501.85,696.242,1455.411,719.192C1407.984,742.63,1314.455,796,1314.455,796" stroke="#2d3135" stroke-width="1" fill="none" stroke-linecap="round" stroke-miterlimit="4"></path><path d="M1596,363.542C1596,363.542,1532.425,344.627,1506.402,331.313C1483.851,319.776,1465.11,308.253,1447.408,290.909C1427.612,271.514,1407.888,242.656,1395.383,218.182C1384.463,196.81,1373.198,169.836,1373.687,153.535C1373.99,143.442,1377.536,137.176,1383.476,129.293C1391.895,118.121,1405.362,108.573,1424.864,96.97C1461.63,75.096,1596,22.517,1596,22.517" stroke="#2d3135" stroke-width="1" fill="none" stroke-linecap="round" stroke-miterlimit="4"></path><path d="M1595.605,533.333C1595.605,533.333,1574.553,560.474,1559.849,573.737C1541.581,590.215,1521.875,604.005,1492.146,622.222C1441.598,653.197,1343.632,704.805,1278.392,732.975C1226.321,755.458,1171.097,774.967,1133.668,783.708C1110.91,789.023,1096.158,790.402,1077.387,790.591C1058.637,790.781,1040.476,790.623,1021.106,784.859C997.863,777.941,965.814,760.74,948.744,747.459C937.118,738.414,930.414,729.517,923.678,719.192C917.079,709.077,911.266,699.408,908.543,686.248C904.924,668.756,905.332,646.491,909.992,622.222C916.614,587.731,950.755,526.244,955.165,501.01C957.074,490.086,956.786,484.64,954.906,476.768C952.92,468.455,949.991,460.217,942.947,452.525C932.261,440.855,913.293,430.627,889.774,420.202C850.526,402.804,771.89,387.484,723.618,370.926C685.367,357.805,649.88,345.202,622.265,331.313C601.605,320.922,581.651,308.796,570.644,298.99C564.227,293.274,560.584,289.183,557.713,282.828C554.583,275.898,552.096,266.429,553.46,258.586C554.913,250.235,561.064,241.041,567.282,234.343C573.614,227.522,579.893,222.927,591.291,218.182C612.701,209.269,650.352,201.502,691.457,198.243C755.695,193.15,864.849,201.597,940.704,207.784C1004.83,213.015,1070.798,217.257,1117.588,229.922C1150.359,238.792,1174.022,247.143,1197.99,264.311C1223.738,282.755,1245.404,321.418,1265.427,339.394C1278.901,351.491,1283.847,355.905,1302.513,366.104C1346.804,390.307,1491.533,432.706,1541.873,460.606C1567.615,474.873,1596,500.581,1596,500.581" stroke="#2d3135" stroke-width="1" fill="none" stroke-linecap="round" stroke-miterlimit="4"></path><path d="M1070.864,573.737C1080.116,559.573,1093.863,544.554,1106.396,533.333C1117.615,523.289,1128.516,515.45,1141.709,508.602C1156.098,501.133,1172.987,494.743,1189.95,491.178C1207.739,487.439,1226.911,486.312,1246.231,487.362C1267.023,488.492,1291.054,492.458,1310.553,498.822C1328.229,504.591,1347.265,512.482,1358.794,522.401C1367.822,530.169,1375.698,539.624,1377.504,549.495C1379.321,559.421,1375.675,571.333,1369.516,581.818C1361.301,595.801,1342.951,610.307,1326.215,622.222C1307.724,635.386,1285.317,646.497,1262.312,656.026C1237.494,666.307,1206.563,675.971,1181.91,680.798C1161.707,684.754,1143.557,687.131,1125.628,685.754C1108.816,684.462,1089.892,681.324,1077.387,673.889C1066.77,667.577,1057.429,657.612,1053.266,647.426C1049.252,637.601,1049.747,625.49,1052.043,614.141C1054.699,601.013,1062.443,586.629,1070.864,573.737" stroke="#2d3135" stroke-width="1" fill="none" stroke-linecap="round" stroke-miterlimit="4"></path></svg>